<svg width="30" height="30" viewBox="0 0 30 30" fill="none" xmlns="http://www.w3.org/2000/svg">
<path d="M9.59999 1.79999C5.29799 1.79999 1.79999 5.29799 1.79999 9.59999V20.4C1.79999 24.702 5.29799 28.2 9.59999 28.2H20.4C24.702 28.2 28.2 24.702 28.2 20.4V9.59999C28.2 5.29799 24.702 1.79999 20.4 1.79999H9.59999ZM22.2 6.59999C22.86 6.59999 23.4 7.13999 23.4 7.79999C23.4 8.45999 22.86 8.99999 22.2 8.99999C21.54 8.99999 21 8.45999 21 7.79999C21 7.13999 21.54 6.59999 22.2 6.59999ZM15 8.39999C18.642 8.39999 21.6 11.358 21.6 15C21.6 18.642 18.642 21.6 15 21.6C11.358 21.6 8.39999 18.642 8.39999 15C8.39999 11.358 11.358 8.39999 15 8.39999ZM15 9.59999C12.024 9.59999 9.59999 12.024 9.59999 15C9.59999 17.976 12.024 20.4 15 20.4C17.976 20.4 20.4 17.976 20.4 15C20.4 12.024 17.976 9.59999 15 9.59999Z" fill="#523030"/>
</svg>
