<svg width="30" height="30" viewBox="0 0 30 30" fill="none" xmlns="http://www.w3.org/2000/svg">
<path d="M15 1.20001C7.39078 1.20001 1.19998 7.39081 1.19998 15C1.19998 17.376 1.81378 19.7124 2.97778 21.774L1.22218 28.038C1.16458 28.2438 1.22038 28.4646 1.36918 28.6176C1.48378 28.7358 1.63978 28.8 1.79998 28.8C1.84798 28.8 1.89658 28.794 1.94398 28.7826L8.48158 27.1632C10.4778 28.2348 12.726 28.8 15 28.8C22.6092 28.8 28.8 22.6092 28.8 15C28.8 7.39081 22.6092 1.20001 15 1.20001ZM21.942 19.8696C21.6468 20.6868 20.2308 21.4326 19.5504 21.5328C18.9396 21.6222 18.1668 21.6606 17.3184 21.3942C16.8042 21.2322 16.1442 21.0174 15.2988 20.6568C11.745 19.1412 9.42418 15.6078 9.24658 15.3744C9.06958 15.141 7.79998 13.4778 7.79998 11.7564C7.79998 10.035 8.71498 9.18841 9.04018 8.83801C9.36538 8.48761 9.74878 8.40001 9.98518 8.40001C10.2216 8.40001 10.4574 8.40301 10.6644 8.41261C10.8822 8.42341 11.1744 8.33041 11.4618 9.01321C11.757 9.71401 12.4656 11.4354 12.5532 11.6112C12.642 11.7864 12.7008 11.991 12.5832 12.2244C12.4656 12.4578 12.4068 12.6036 12.2292 12.8082C12.0516 13.0128 11.8572 13.2642 11.6976 13.4214C11.52 13.596 11.3358 13.785 11.5422 14.1354C11.7486 14.4858 12.4596 15.6312 13.5132 16.5588C14.8662 17.7504 16.008 18.12 16.362 18.2952C16.716 18.4704 16.923 18.441 17.1294 18.2076C17.3358 17.9736 18.015 17.1858 18.2508 16.836C18.4866 16.4862 18.723 16.5438 19.0482 16.6608C19.3734 16.7772 21.1152 17.6232 21.4692 17.7984C21.8232 17.9736 22.0596 18.0612 22.1484 18.207C22.2372 18.3522 22.2372 19.053 21.942 19.8696Z" fill="#523030"/>
</svg>
